PathFileType	4	(X/Y/Z)	E:\Qualisys_Data\Carbon_Farble_Plate\Data\Amateur_Runner\S14\T3\S14T3V22_c3d.trc
DataRate	CameraRate	NumFrames	NumMarkers	Units	OrigDataRate	OrigDataStartFrame	OrigNumFrames
200.000000	200.000000	4	39	mm	200.000000	75	302
Frame#	Time	LSHO			RSHO			LICST			RICST			LASIS			LHEEL			RASIS			LTROC			RTROC			SACR			LTH1			LSK4			LTH2			LTH3			RHM5			LSK2			LTH4			RTH1			LTOE			RTH2			RTH3			RTH4			LLEP			RLEP			LSK1			LSK3			RSK1			LHM5			RSK2			LFT1			RSK3			RSK4			LLME			RLME			RTOE			RHEEL			RFT1			RFT2			LFT2			
		X1	Y1	Z1	X2	Y2	Z2	X3	Y3	Z3	X4	Y4	Z4	X5	Y5	Z5	X6	Y6	Z6	X7	Y7	Z7	X8	Y8	Z8	X9	Y9	Z9	X10	Y10	Z10	X11	Y11	Z11	X12	Y12	Z12	X13	Y13	Z13	X14	Y14	Z14	X15	Y15	Z15	X16	Y16	Z16	X17	Y17	Z17	X18	Y18	Z18	X19	Y19	Z19	X20	Y20	Z20	X21	Y21	Z21	X22	Y22	Z22	X23	Y23	Z23	X24	Y24	Z24	X25	Y25	Z25	X26	Y26	Z26	X27	Y27	Z27	X28	Y28	Z28	X29	Y29	Z29	X30	Y30	Z30	X31	Y31	Z31	X32	Y32	Z32	X33	Y33	Z33	X34	Y34	Z34	X35	Y35	Z35	X36	Y36	Z36	X37	Y37	Z37	X38	Y38	Z38	X39	Y39	Z39	

76	0.375	-1490.84130859375	1483.59130859375	-506.4889526367188	-1369.857421875	1473.900756835938	-237.8587799072266	-1464.669921875	1024.723022460938	-479.8920288085938	-1414.229858398438	1030.769165039062	-212.1360931396484	-1416.70361328125	973.9601440429688	-456.6329650878906	-1275.974243164062	116.6563262939453	-361.5566711425781	-1398.424560546875	983.9007568359376	-228.7391357421875	-1537.57275390625	907.714599609375	-501.6189270019531	-1561.762329101562	935.4074096679688	-164.5759429931641	-1580.054565429688	1032.229736328125	-341.0392150878906	-1384.490966796875	701.0638427734375	-502.3042602539062	-1334.393188476562	332.6997680664062	-438.4906616210938	-1451.068969726562	673.8250732421875	-468.5916442871094	-1329.07177734375	621.6158447265625	-474.1973876953125	-2057.591064453125	236.6060333251953	-151.9291534423828	-1359.141845703125	428.7196960449219	-455.7364501953125	-1398.310180664062	587.5431518554688	-449.9818725585938	-1535.017578125	689.32763671875	-175.0760192871094	-1036.907470703125	217.3043670654297	-414.005615234375	-1604.331420898438	727.3279418945312	-161.5238952636719	-1579.972290039062	601.5848388671875	-195.8313751220703	-1653.591430664062	640.3702392578125	-179.8989868164062	-1337.296997070312	533.244140625	-463.9642944335938	-1666.6513671875	570.7525634765625	-180.3018646240234	-1278.464721679688	447.2039184570312	-461.1209716796875	-1256.358764648438	349.1572265625	-449.6299438476562	-1763.13525390625	479.7470092773438	-176.1964721679688	-1096.995483398438	165.5315399169922	-464.1392822265625	-1810.319213867188	552.3822631835938	-175.7577819824219	-1249.788696289062	97.49063873291016	-335.3808898925781	-1852.317138671875	428.5936584472656	-180.825439453125	-1890.107788085938	497.9103393554688	-183.7151794433594	-1239.394653320312	164.59228515625	-423.48828125	-2018.51904296875	379.6983947753906	-191.9847259521484	-2030.412475585938	163.6190948486328	-210.5271301269531	-2055.049560546875	419.3464965820312	-251.2397766113281	-2078.869873046875	399.1275634765625	-277.8018798828125	-2079.073486328125	419.5107421875	-229.3862609863281	-1260.828735351562	85.03612518310547	-386.1158447265625
77	0.38	-1470.333618164062	1481.396850585938	-507.4775085449219	-1350.009887695312	1471.67236328125	-239.0249176025391	-1443.05322265625	1022.18017578125	-480.1346740722656	-1394.220581054688	1029.162963867188	-212.3071899414062	-1396.413818359375	971.0029907226562	-456.2784118652344	-1253.859497070312	113.7662811279297	-360.1970825195312	-1378.020263671875	982.208251953125	-229.2503356933594	-1517.392456054688	904.4793090820312	-501.5624389648438	-1540.587158203125	932.8734130859376	-164.6057891845703	-1559.925415039062	1029.56591796875	-341.2881774902344	-1366.912841796875	697.350341796875	-503.9845581054688	-1314.323120117188	329.6698913574219	-437.4784851074219	-1430.365966796875	667.4448852539062	-467.8193664550781	-1311.0634765625	618.1141967773438	-474.8107299804688	-2041.440673828125	245.0972290039062	-151.5822448730469	-1338.958618164062	424.2809753417969	-455.0039978027344	-1380.77197265625	584.4525146484375	-449.6884460449219	-1512.488525390625	686.9491577148438	-174.7770690917969	-1016.28662109375	217.2739410400391	-413.0436096191406	-1580.740234375	724.7062377929688	-161.9586639404297	-1557.439453125	598.9299926757812	-195.2397766113281	-1631.671630859375	637.075439453125	-179.9207458496094	-1319.95068359375	531.1957397460938	-463.0062255859375	-1643.322387695312	567.2345581054688	-180.7867431640625	-1258.933349609375	444.2183837890625	-460.1988830566406	-1236.368774414062	346.7584228515625	-448.7194519042969	-1740.563842773438	479.9716491699219	-174.3446807861328	-1075.749389648438	164.9687347412109	-463.4654541015625	-1787.53955078125	552.6836547851562	-177.3099975585938	-1227.702514648438	95.10491180419922	-334.0549926757812	-1832.15087890625	429.8246459960938	-181.3300018310547	-1868.276245117188	500.413818359375	-184.8703460693359	-1218.29052734375	162.5102844238281	-422.2461853027344	-1999.457275390625	386.0558166503906	-193.1681060791016	-2015.724975585938	170.4583129882812	-209.3718109130859	-2034.331787109375	425.6024780273438	-252.2157440185547	-2059.79345703125	405.9158020019531	-279.58251953125	-2059.438720703125	426.2560424804688	-231.2509613037109	-1239.639038085938	82.32310485839844	-383.5406494140625
78	0.385	-1450.154296875	1478.6279296875	-508.7710266113281	-1330.190673828125	1469.452514648438	-240.2048797607422	-1421.801635742188	1019.398376464844	-480.106689453125	-1374.509033203125	1027.107666015625	-213.3206939697266	-1376.892822265625	968.1342163085938	-456.4025573730469	-1234.896850585938	109.8392868041992	-360.5466613769531	-1358.457275390625	980.1808471679688	-229.3714752197266	-1497.237182617188	901.2594604492188	-501.7458801269531	-1519.789184570312	929.9957275390624	-164.6080627441406	-1540.151000976562	1026.7861328125	-342.0791015625	-1349.702026367188	693.4754638671875	-505.884521484375	-1295.16259765625	326.4439086914062	-436.9142456054688	-1412.856201171875	664.3667602539062	-467.5604553222656	-1293.73291015625	615.2991943359375	-476.0151977539062	-2024.63134765625	252.3373718261719	-151.7554168701172	-1319.81201171875	421.6029968261719	-454.0268249511719	-1362.97119140625	581.6741943359375	-449.2825317382812	-1490.352783203125	683.9642944335938	-175.1561431884766	-996.9482421875	215.7071990966797	-411.6785278320312	-1559.060913085938	721.1494140625	-161.0607147216797	-1534.122314453125	595.220703125	-195.271484375	-1608.704833984375	633.344482421875	-179.5146789550781	-1299.9208984375	528.4475708007812	-462.0982055664062	-1621.369750976562	562.6001586914062	-180.4001922607422	-1239.644653320312	441.4888000488281	-459.6947021484375	-1217.5703125	343.8821105957031	-447.8399353027344	-1718.619750976562	478.2022705078125	-173.9187927246094	-1055.78662109375	161.7072906494141	-460.9598999023438	-1763.373046875	552.1494140625	-177.7296295166016	-1207.446899414062	92.17645263671876	-332.8507995605469	-1812.156616210938	430.1270446777344	-182.1640014648438	-1845.590942382812	502.1869812011719	-185.668212890625	-1198.162109375	159.1805267333984	-421.03369140625	-1979.345458984375	392.344482421875	-194.0536956787109	-2000.181396484375	177.0760650634766	-208.5681457519531	-2014.127563476562	431.82470703125	-254.4521026611328	-2040.11767578125	412.8213806152344	-281.6643981933594	-2038.64013671875	433.0828857421875	-233.1349487304688	-1219.317504882812	81.02986145019531	-384.1482543945312
79	0.39	-1430.103881835938	1475.725830078125	-509.952392578125	-1310.02880859375	1467.243896484375	-241.027099609375	-1401.709838867188	1017.383056640625	-480.6106567382812	-1355.206665039062	1024.952514648438	-213.8473663330078	-1358.479858398438	965.2689208984376	-456.3379211425781	-1216.48876953125	106.4917221069336	-359.4488220214844	-1337.673828125	978.5386352539062	-229.0734710693359	-1477.5341796875	897.7946166992188	-501.928466796875	-1499.171142578125	926.80810546875	-164.4058380126953	-1520.518188476562	1023.923278808594	-342.5863952636719	-1331.341796875	689.5921020507812	-506.4677124023438	-1276.889770507812	323.7502136230469	-436.3626098632812	-1394.293090820312	660.8864135742188	-466.28515625	-1274.044921875	611.9933471679688	-475.5493774414062	-2007.519409179688	259.9604797363281	-152.1077880859375	-1300.735595703125	418.6642150878906	-453.7954406738281	-1343.886962890625	578.71533203125	-448.2575378417969	-1467.40185546875	680.7230224609375	-174.8796997070312	-978.8513793945312	212.9512023925781	-410.0621337890625	-1536.230224609375	715.7645263671875	-161.9129791259766	-1510.221557617188	591.733642578125	-194.7875823974609	-1585.5634765625	628.5717163085938	-179.1946563720703	-1281.243408203125	525.2855224609375	-461.5180969238281	-1594.838500976562	556.1640625	-178.2035980224609	-1220.768188476562	438.3233032226562	-458.4196472167969	-1198.4453125	340.18798828125	-446.1837463378906	-1696.619750976562	476.0086364746094	-174.3308563232422	-1037.919189453125	159.0652923583984	-459.140869140625	-1738.280883789062	550.7919311523438	-177.3905181884766	-1189.293823242188	88.39926147460938	-331.8350219726562	-1790.753295898438	430.6391906738281	-182.4303894042969	-1822.439697265625	503.4556274414062	-186.4464263916016	-1179.582885742188	156.2779693603516	-419.7955932617188	-1961.540649414062	397.9283142089844	-194.0429382324219	-1984.901245117188	183.3652191162109	-208.603515625	-1992.432250976562	437.6471557617188	-256.4369201660156	-2018.434204101562	418.7373657226562	-282.8365478515625	-2019.621826171875	442.4917297363281	-236.9881896972656	-1200.24462890625	77.05460357666016	-382.4226989746094
